<svg xmlns="http://www.w3.org/2000/svg" viewBox="0 0 203.11 65.16"><title>Asset 2</title><g id="0b867282-30c1-43e9-897e-26bd23c039f1" data-name="Layer 2"><g id="43b19c8f-b730-4c3d-b8b0-868f8ed681c8" data-name="Layer 1"><path d="M21.28,23.06a14.15,14.15,0,0,1-5.34,1.13,8.81,8.81,0,0,1-5.09-1.45q-2.13-1.45-2.13-5.11a13.51,13.51,0,0,1,3.16-8.34A23.25,23.25,0,0,1,20.6,2.6,28.65,28.65,0,0,1,32.91,0a25,25,0,0,1,8.23,1.22A11.79,11.79,0,0,1,46.5,4.71a8.17,8.17,0,0,1,1.88,5.37q0,6-6.19,11.3A110.07,110.07,0,0,1,27.35,31.78q-8.65,5.16-10.85,6.8a28.56,28.56,0,0,1,5.88.82q3.68.82,6.45,1.34a29.15,29.15,0,0,0,5.34.52,12.75,12.75,0,0,0,6-1.17,3.7,3.7,0,0,0,2.2-3.42q0-2.91-3.47-4.73l1.08-1.22a10.52,10.52,0,0,1,4,3.4,8.54,8.54,0,0,1,1.27,4.76A12.54,12.54,0,0,1,43.59,45a11.92,11.92,0,0,1-4.92,4.69,17.36,17.36,0,0,1-8.34,1.8,32.14,32.14,0,0,1-7.12-.89q-3.89-.89-6.77-1.45a32.43,32.43,0,0,0-6.21-.56,21.11,21.11,0,0,0-5,.54A35.89,35.89,0,0,0,0,51l.47-2q1.31-1.08,11.11-8.25A94.54,94.54,0,0,0,28.1,25.55q6.73-8,6.73-15.09a8,8,0,0,0-1.92-5.79,7.08,7.08,0,0,0-5.34-2,15.44,15.44,0,0,0-7.62,2.18,19.91,19.91,0,0,0-6.4,5.65,11.84,11.84,0,0,0-2.53,7A4.38,4.38,0,0,0,12.33,21a6.52,6.52,0,0,0,4.27,1.13,10.19,10.19,0,0,0,4.48-.94,21.56,21.56,0,0,0,4.38-3l1.13,1.31A17.19,17.19,0,0,1,21.28,23.06Z" fill="#2bb8e2"/><path d="M100.45,2.09a14.77,14.77,0,0,1,6.52,6,18.49,18.49,0,0,1,2.25,9.33,32.82,32.82,0,0,1-4.69,16.66A38.26,38.26,0,0,1,92,47.25a30.54,30.54,0,0,1-16.85,5.06A23.13,23.13,0,0,1,65,50.23a15.11,15.11,0,0,1-6.63-6A18.36,18.36,0,0,1,56,34.73a32.45,32.45,0,0,1,4.73-16.64A38.18,38.18,0,0,1,73.38,5a31,31,0,0,1,16.9-5A22.94,22.94,0,0,1,100.45,2.09ZM79.27,6.84a37.32,37.32,0,0,0-6.77,13.27A56.68,56.68,0,0,0,70,36.66q0,7.17,1.8,10.55t4.8,3.38q5.34,0,9.59-5.27a38.13,38.13,0,0,0,6.61-13.45A59.16,59.16,0,0,0,95.2,15.33q0-7-1.76-10.34t-4.66-3.3Q83.58,1.69,79.27,6.84Z" fill="#2bb8e2"/><path d="M118.45,51l12-40.5a112.05,112.05,0,0,1-12.8,4l.28-2a88.87,88.87,0,0,0,11.51-3.66,70.1,70.1,0,0,0,8.44-4q3.45-2,7.24-4.55H147L132,51Z" fill="#2bb8e2"/><path d="M192.09,14.11a106.38,106.38,0,0,0-13,18.07A79.79,79.79,0,0,0,171.7,51q-.8,3.23-1.08,4.92t-.52,2.67a8.48,8.48,0,0,1-2.86,4.76,8.59,8.59,0,0,1-5.72,1.85q-5.72,0-5.72-5.34a15.21,15.21,0,0,1,.47-3.47q2-8.72,10.08-18.3t18.35-19.59q10.29-10,13-12.91-5,3.28-7.83,5a31,31,0,0,1-5.65,2.65,17.65,17.65,0,0,1-5.79,1,18.64,18.64,0,0,1-4.17-.42q-1.83-.42-5.09-1.5a18.61,18.61,0,0,0-5.74-1.08,8.38,8.38,0,0,0-5.06,1.41,4.94,4.94,0,0,0-1.92,4.27q0,7,11.63,9.7L167.58,28Q153,25.08,153,14.2a13.72,13.72,0,0,1,1.59-6.49,12.27,12.27,0,0,1,5-4.95A17.09,17.09,0,0,1,168.09.84a31.85,31.85,0,0,1,9.12,1.45q4.85,1.45,7.76,2.2a27.6,27.6,0,0,0,6.84.75,13.89,13.89,0,0,0,4.92-.8,8.63,8.63,0,0,0,3.8-3h2.58Q200.34,4.64,192.09,14.11Z" fill="#2bb8e2"/></g></g></svg>