<svg xmlns="http://www.w3.org/2000/svg" viewBox="0 0 70.66 58.91"><title>Asset 1</title><g id="eb8e27eb-e222-4721-93a4-591ce692bfd2" data-name="Layer 2"><g id="7e13ce59-c9b0-4a4c-9bfd-e01b6e15e771" data-name="Layer 1"><path d="M39.14,45a10.69,10.69,0,0,1-6.25,1.74,11.94,11.94,0,0,1-4.71-.92,8,8,0,0,1-3.54-2.93,9,9,0,0,1-1.37-5.18q0-9.61,14-14.18,2.77-.94,9.57-3.11t11.45-3.93a46.55,46.55,0,0,0,5-2.09,10.65,10.65,0,0,0,3.34-2.6A5.76,5.76,0,0,0,68,7.93,5.94,5.94,0,0,0,67,4.43,6.91,6.91,0,0,0,64.1,2.11a9.58,9.58,0,0,0-4-.82,4.68,4.68,0,0,0-2.3.47q3.52,1.49,3.52,4.73a4.77,4.77,0,0,1-1,3,6.77,6.77,0,0,1-2.7,2.05,8.57,8.57,0,0,1-3.46.72,6.12,6.12,0,0,1-4.16-1.41,4.59,4.59,0,0,1-1.62-3.63,5.37,5.37,0,0,1,1.35-3.65,9.19,9.19,0,0,1,3.61-2.44A16.52,16.52,0,0,1,59.77,0a11.77,11.77,0,0,1,7.95,2.54q2.95,2.54,2.95,8.13A14.22,14.22,0,0,1,69,17.77a15.12,15.12,0,0,1-5,5.18,40.92,40.92,0,0,1-8.5,4q-2.07.78-4.92,1.76a13.07,13.07,0,0,1,3.4,9.1A17.71,17.71,0,0,1,50.64,48a23.55,23.55,0,0,1-9.86,7.89,37.35,37.35,0,0,1-15.82,3,38.3,38.3,0,0,1-12.93-2,19.5,19.5,0,0,1-8.83-6A14.7,14.7,0,0,1,0,41.37a17.86,17.86,0,0,1,2.66-9.47,22.91,22.91,0,0,1,7.52-7.42A35,35,0,0,1,21.52,20a11.18,11.18,0,0,1-5.27-3.42,7.68,7.68,0,0,1-1.76-4.9,7.52,7.52,0,0,1,2.27-5.49A14.18,14.18,0,0,1,22.6,2.75,24.24,24.24,0,0,1,30.08,1.6q4.88,0,7.48,1.76A5.38,5.38,0,0,1,40.16,8a5,5,0,0,1-.94,3.07A6,6,0,0,1,36.88,13a6.79,6.79,0,0,1-2.85.64V12.19a4.53,4.53,0,0,0,3.13-1.11A3.63,3.63,0,0,0,38.4,8.24a3.61,3.61,0,0,0-1.58-3.07A6.91,6.91,0,0,0,32.66,4,10.41,10.41,0,0,0,27.3,5.49a11.11,11.11,0,0,0-4,4.08,11.51,11.51,0,0,0-1.52,5.9,9.6,9.6,0,0,0,.9,4.06,31.49,31.49,0,0,1,5-.47q2.89,0,2.89,1.68A1.37,1.37,0,0,1,29.84,22a3.44,3.44,0,0,1-1.76.43,14.28,14.28,0,0,1-5.51-1.76,12.57,12.57,0,0,0-5.06,3.5A18,18,0,0,0,14,30.06a20.41,20.41,0,0,0-1.27,7.17q0,7.19,4.79,11T30.82,52a32.38,32.38,0,0,0,10.57-1.68,18.19,18.19,0,0,0,7.89-5,11.85,11.85,0,0,0,3-8.16,11.27,11.27,0,0,0-2.93-8Q45.62,30.43,42,31.62T35,33.95a17.77,17.77,0,0,0-5.51,2.85,5,5,0,0,0-2,4,3.67,3.67,0,0,0,1.64,3.3,7.18,7.18,0,0,0,4,1.07,9.09,9.09,0,0,0,3.93-.82,9.62,9.62,0,0,0,2.85-2,9.06,9.06,0,0,0,1.62-2.17l1.21.66A11,11,0,0,1,39.14,45Z" fill="#2bb8e2"/></g></g></svg>